<svg width="742" height="256" viewBox="0 0 742 256" fill="none" xmlns="http://www.w3.org/2000/svg">
<path d="M19.85 162.359V6.60928H88.0295L99.2332 0.00390625H9.35663L0 5.54333V168.946H88.0828L99.2157 162.359H19.85Z" fill="#DAD9D6"/>
<path d="M26.5259 87.7677H76.6667L87.8162 81.1807H37.6745L26.5259 87.7677Z" fill="#DAD9D6"/>
<path d="M306.667 81.1992L295.571 87.7522H348.819L359.915 81.1992H306.667Z" fill="#DAD9D6"/>
<path d="M386.335 0.00390625L366.556 11.7049V168.946L386.335 157.263V0.00390625Z" fill="#DAD9D6"/>
<path d="M288.912 0.00390625L269.133 11.7049V168.946L288.912 157.263V0.00390625Z" fill="#DAD9D6"/>
<path d="M230.196 6.59093L241.346 0.00390625H124.162L113.012 6.59093H230.196Z" fill="#DAD9D6"/>
<path d="M187.069 13.3203L167.29 25.0029V168.946L187.069 157.263V13.3203Z" fill="#DAD9D6"/>
<path d="M507.158 157.741C495.588 155.811 484.558 151.455 474.791 144.958C464.874 138.227 456.505 129.463 450.238 119.247C443.971 109.031 439.951 97.5979 438.444 85.708C437.083 73.9777 438.227 62.0921 441.8 50.8367C445.564 38.8518 452.701 30.3827 459.005 19.9941C449.152 25.5336 440.308 37.8741 434.343 47.2841C427.72 57.7417 423.033 69.496 421.577 81.8182C419.678 97.8694 423.282 114.381 430.97 128.604C438.338 142.222 449.541 153.905 463.32 160.989C488.16 173.755 519.391 170.204 543.431 156C531.613 159.228 519.231 159.822 507.158 157.741Z" fill="#DAD9D6"/>
<path d="M574.326 115.554C571.463 125.809 566.784 135.466 560.512 144.069C575.196 131.303 587.465 115.057 592.436 96.2538C597.745 76.1721 594.176 53.996 583.257 36.3118C559.841 -1.59573 508.649 -10.5977 471.843 12.9833C493.948 5.52602 519.286 8.78939 539.032 21.2042C558.778 33.619 572.621 54.8488 576.471 77.8417C578.534 90.4176 577.801 103.294 574.326 115.554Z" fill="#DAD9D6"/>
<path d="M737.886 101.83C735.116 96.077 730.482 91.6026 722.847 87.2882C714.999 82.8496 706.282 80.1149 698.754 77.8956C694.618 76.6724 690.475 75.4783 686.325 74.3133C679.382 72.3247 672.209 70.2654 665.196 68.0994C659.014 66.2277 653.183 63.3482 647.938 59.5771C640.392 54.0726 636.575 46.7752 636.611 37.8982C636.651 33.8326 637.471 29.8125 639.025 26.0557C631.075 34.4364 624.555 43.5625 624.928 55.7781C625.496 74.3011 643.606 82.3044 659.054 86.8496C663.848 88.2519 668.752 89.6367 673.47 90.9692C679.631 92.6913 685.988 94.4851 692.219 96.3671C703.49 99.7746 711.75 104.179 718.177 110.181C724.279 115.631 728.081 123.196 728.812 131.345C729.292 136.618 728.368 138.429 726.113 144.094C729.425 140.904 732.494 137.472 735.296 133.826C742.52 123.99 743.389 113.23 737.886 101.83Z" fill="#DAD9D6"/>
<path d="M722.173 12.309V12.3448C716.572 7.25894 709.793 3.64757 702.447 1.83647C689.84 -1.43389 679.667 -0.190577 667.522 4.40785C661.023 6.85428 656.194 9.62749 652.319 13.1259C650.189 15.0434 648.159 16.9316 646.229 18.7903C660.583 12.2642 676.808 11.1295 691.931 15.5942C705.661 19.8012 716.668 30.5821 723.933 44.9252L739.682 35.6217C735.611 26.6697 729.636 18.7138 722.173 12.309Z" fill="#DAD9D6"/>
<path d="M688.099 155.079C681.084 154.8 674.147 153.509 667.503 151.244C651.914 145.827 639.698 133.01 631.942 116.23L615.073 126.191C618.845 136.395 624.942 145.581 632.88 153.02C639.113 159.086 646.759 163.504 655.127 165.875C669.491 170.156 680.908 169.905 695.076 165.129C702.64 162.59 708.303 159.589 712.92 155.736C715.459 153.605 717.856 151.528 720.164 149.486C710.027 153.719 699.071 155.63 688.099 155.079Z" fill="#DAD9D6"/>
<path d="M213.08 225.781H219.045L223.165 237.944L227.16 250.443L231.154 237.944L235.238 225.781H241.186V255.557H237.439V240.66L237.526 228.995L233.78 240.66L228.719 255.557H225.399L220.339 240.66L216.504 228.924L216.679 240.66V255.557H213.062V225.781H213.08Z" fill="#DAD9D6"/>
<path d="M254.378 225.781H274.371V228.888H258.162V238.725H269.685V241.797H258.162V252.465H274.372V255.572H254.378V225.781Z" fill="#DAD9D6"/>
<path d="M293.421 228.888H283.177V225.781H307.379V228.888H297.204V255.557H293.421V228.888Z" fill="#DAD9D6"/>
<path d="M317.871 225.781H331.613C336.975 225.781 340.419 228.587 340.419 233.732C340.507 235.28 340.079 236.814 339.202 238.093C338.325 239.372 337.048 240.324 335.572 240.799C338.218 241.403 339.141 243.142 339.265 246.285C339.287 249.459 339.895 252.601 341.058 255.553H336.979C336.215 253.689 335.701 251.559 335.611 246.143C335.524 243.374 334.421 242.273 331.777 242.273H321.652V255.553H317.871V225.781ZM321.653 228.888V239.346H331.4C334.756 239.346 336.73 237.553 336.73 234.108C336.73 230.7 334.777 228.87 331.4 228.87H321.652L321.653 228.888Z" fill="#DAD9D6"/>
<path d="M350.949 240.677C350.949 230.717 356.311 225.354 364.088 225.354C371.951 225.354 377.227 230.717 377.227 240.677C377.227 250.638 371.897 256 364.088 256C356.364 256 350.949 250.638 350.949 240.677ZM373.463 240.677C373.463 232.813 369.84 228.461 364.106 228.461C358.318 228.461 354.749 232.758 354.749 240.677C354.749 248.541 358.372 252.839 364.106 252.839C369.804 252.84 373.463 248.543 373.463 240.677Z" fill="#DAD9D6"/>
<path d="M395.66 228.888H385.412V225.781H409.614V228.888H399.438V255.557H395.66V228.888Z" fill="#DAD9D6"/>
<path d="M417.761 240.677C417.761 230.717 423.123 225.354 430.9 225.354C438.763 225.354 444.039 230.717 444.039 240.677C444.039 250.638 438.709 256 430.9 256C423.176 256 417.761 250.638 417.761 240.677ZM440.275 240.677C440.275 232.813 436.652 228.461 430.918 228.461C425.13 228.461 421.562 232.758 421.562 240.677C421.562 248.541 425.184 252.839 430.918 252.839C436.617 252.84 440.275 248.543 440.275 240.677Z" fill="#DAD9D6"/>
<path d="M453.484 225.781H457.355L460.125 238.299L462.841 251.318L466.037 238.299L469.182 225.781H472.929L476.074 238.299L479.181 251.318L481.951 238.299L484.721 225.781H488.414L481.435 255.557H477.049L473.974 243.553L470.955 231.088L467.937 243.553L464.865 255.555H460.391L453.484 225.781Z" fill="#DAD9D6"/>
<path d="M499.115 225.781H503.235L510.976 237.874L518.717 250.462L518.468 237.874L518.432 225.782H521.998V255.558H517.825L510.176 243.553L502.435 231L502.737 243.553V255.555H499.115V225.781Z" fill="#DAD9D6"/>
</svg>
