<svg width="151" height="35" viewBox="0 0 151 35" fill="none" xmlns="http://www.w3.org/2000/svg">
<path d="M4.04253 33.0649V1.34617H17.9276L20.2093 0.000976562H1.90552L0 1.12909V34.4064H17.9385L20.2057 33.0649H4.04253Z" fill="#DAD9D6"/>
<path d="M5.4021 17.8737H15.6135L17.8841 16.5322H7.67257L5.4021 17.8737Z" fill="#DAD9D6"/>
<path d="M62.4541 16.5361L60.1943 17.8707H71.0385L73.2983 16.5361H62.4541Z" fill="#DAD9D6"/>
<path d="M78.6788 0.000976562L74.6506 2.3839V34.4064L78.6788 32.0272V0.000976562Z" fill="#DAD9D6"/>
<path d="M58.8382 0.000976562L54.8101 2.3839V34.4064L58.8382 32.0272V0.000976562Z" fill="#DAD9D6"/>
<path d="M46.8804 1.34244L49.1512 0.000976562H25.2862L23.0154 1.34244H46.8804Z" fill="#DAD9D6"/>
<path d="M38.0975 2.71289L34.0693 5.09208V34.4064L38.0975 32.0272V2.71289Z" fill="#DAD9D6"/>
<path d="M103.285 32.1248C100.929 31.7317 98.6823 30.8445 96.6933 29.5214C94.6738 28.1507 92.9692 26.3657 91.6929 24.2853C90.4167 22.2048 89.5979 19.8764 89.2911 17.455C89.0139 15.0661 89.2469 12.6456 89.9746 10.3534C90.7411 7.91266 92.1947 6.18793 93.4785 4.07227C91.4717 5.20038 89.6707 7.71355 88.4559 9.62993C87.1071 11.7596 86.1525 14.1534 85.8561 16.6629C85.4692 19.9317 86.2032 23.2944 87.7689 26.1908C89.2694 28.9643 91.5511 31.3435 94.3571 32.7862C99.4159 35.386 105.776 34.6629 110.672 31.7702C108.265 32.4275 105.744 32.5486 103.285 32.1248Z" fill="#DAD9D6"/>
<path d="M116.964 23.5331C116.381 25.6214 115.428 27.5882 114.151 29.3402C117.141 26.7404 119.64 23.4318 120.652 19.6025C121.733 15.5128 121.007 10.9966 118.783 7.39515C114.014 -0.324792 103.589 -2.15807 96.0928 2.64425C100.595 1.12557 105.755 1.79016 109.776 4.31845C113.797 6.84675 116.617 11.1702 117.401 15.8528C117.821 18.4139 117.672 21.0361 116.964 23.5331Z" fill="#DAD9D6"/>
<path d="M150.274 20.7382C149.71 19.5666 148.766 18.6554 147.211 17.7768C145.613 16.8729 143.837 16.3159 142.304 15.864C141.462 15.6148 140.618 15.3717 139.773 15.1344C138.359 14.7294 136.898 14.31 135.47 13.8689C134.211 13.4878 133.024 12.9013 131.956 12.1333C130.419 11.0123 129.641 9.52622 129.649 7.71839C129.657 6.89042 129.824 6.07172 130.14 5.30664C128.521 7.01341 127.193 8.87195 127.269 11.3597C127.385 15.1319 131.073 16.7618 134.219 17.6874C135.196 17.973 136.194 18.2551 137.155 18.5264C138.41 18.8771 139.705 19.2424 140.974 19.6257C143.269 20.3197 144.951 21.2166 146.26 22.4389C147.503 23.5488 148.277 25.0895 148.426 26.749C148.524 27.8229 148.336 28.1917 147.876 29.3453C148.551 28.6958 149.176 27.9968 149.746 27.2544C151.218 25.2512 151.395 23.0599 150.274 20.7382Z" fill="#DAD9D6"/>
<path d="M147.074 2.50674V2.51404C145.933 1.4783 144.552 0.742836 143.056 0.374001C140.489 -0.292015 138.417 -0.0388114 135.944 0.897667C134.62 1.39589 133.637 1.96066 132.848 2.67312C132.414 3.06363 132 3.44815 131.607 3.82668C134.531 2.49763 137.835 2.26655 140.915 3.17579C143.711 4.03255 145.953 6.2281 147.432 9.14911L150.639 7.25444C149.81 5.43134 148.593 3.8111 147.074 2.50674Z" fill="#DAD9D6"/>
<path d="M140.134 31.5825C138.706 31.5257 137.293 31.2627 135.94 30.8015C132.765 29.6983 130.277 27.088 128.698 23.6709L125.262 25.6994C126.031 27.7775 127.272 29.6481 128.889 31.1631C130.158 32.3985 131.715 33.2983 133.42 33.7811C136.345 34.6529 138.67 34.6019 141.555 33.6291C143.096 33.112 144.249 32.501 145.189 31.7163C145.706 31.2823 146.195 30.8593 146.665 30.4435C144.6 31.3055 142.369 31.6946 140.134 31.5825Z" fill="#DAD9D6"/>
</svg>
