<svg width="20" height="20" viewBox="0 0 20 20" fill="none" xmlns="http://www.w3.org/2000/svg">
<path d="M16.4535 4.65857C16.4535 4.88809 16.3854 5.11243 16.2579 5.30325C16.1304 5.49407 15.9491 5.64281 15.7371 5.7306C15.525 5.8184 15.2916 5.84134 15.0665 5.79651C14.8414 5.75169 14.6347 5.6411 14.4725 5.47877C14.3103 5.31643 14.1997 5.10962 14.155 4.8845C14.1103 4.65938 14.1334 4.42607 14.2214 4.21407C14.3093 4.00206 14.4582 3.8209 14.6491 3.69349C14.84 3.56608 15.0643 3.49814 15.2939 3.49827C15.6015 3.49846 15.8964 3.62078 16.1139 3.83836C16.3313 4.05594 16.4535 4.35097 16.4535 4.65857ZM15.0091 9.85896C15.0091 10.8232 14.7231 11.7658 14.1873 12.5675C13.6516 13.3692 12.8902 13.994 11.9994 14.363C11.1085 14.732 10.1283 14.8286 9.18254 14.6405C8.23682 14.4524 7.36813 13.988 6.68631 13.3062C6.00448 12.6244 5.54022 11.7557 5.35211 10.8101C5.16399 9.86437 5.26052 8.88415 5.62952 7.99333C5.99852 7.10251 6.62338 6.34111 7.42512 5.80542C8.22686 5.26973 9.16949 4.9838 10.1337 4.9838C11.4264 4.98509 12.6657 5.49927 13.5796 6.41343C14.4936 7.32759 15.0074 8.56703 15.0083 9.85967L15.0091 9.85896ZM13.2581 9.85896C13.2581 9.24145 13.075 8.63782 12.7319 8.12438C12.3888 7.61094 11.9012 7.21074 11.3306 6.97443C10.7601 6.73812 10.1324 6.6763 9.5267 6.79677C8.92103 6.91724 8.36467 7.2146 7.92801 7.65125C7.49135 8.08789 7.19396 8.64422 7.07348 9.24987C6.95301 9.85551 7.01485 10.4833 7.25117 11.0538C7.48749 11.6243 7.88768 12.1119 8.40114 12.455C8.91459 12.798 9.51824 12.9812 10.1358 12.9812C10.9634 12.9802 11.7569 12.6511 12.3421 12.0659C12.9273 11.4807 13.2565 10.6873 13.2574 9.85967L13.2581 9.85896ZM20 5.94421C20 4.3677 19.3737 2.85578 18.2589 1.74102C17.1441 0.626266 15.6321 0 14.0556 0H5.94443C5.1638 0 4.39079 0.153752 3.66958 0.452477C2.94837 0.751202 2.29309 1.18905 1.7411 1.74102C1.18911 2.29299 0.751205 2.94827 0.45247 3.66945C0.153736 4.39064 0 5.1636 0 5.94421V14.0558C0 14.8364 0.153736 15.6094 0.45247 16.3305C0.751205 17.0517 1.18911 17.707 1.7411 18.259C2.29309 18.8109 2.94837 19.2488 3.66958 19.5475C4.39079 19.8462 5.1638 20 5.94443 20H14.0556C14.8362 20 15.6092 19.8462 16.3304 19.5475C17.0516 19.2488 17.7069 18.8109 18.2589 18.259C18.8109 17.707 19.2487 17.0517 19.5474 16.3305C19.8462 15.6094 20 14.8364 20 14.0558V5.94421ZM18.0498 13.9666C18.0498 15.0492 17.6197 16.0875 16.8542 16.853C16.0887 17.6185 15.0505 18.0485 13.9678 18.0485H6.03081C4.94812 18.0485 3.90972 17.6185 3.14408 16.853C2.37844 16.0875 1.94822 15.0493 1.94804 13.9666V6.03405C1.94804 4.95128 2.37817 3.91286 3.14383 3.14722C3.90949 2.38158 4.948 1.95146 6.03081 1.95146H13.9636C14.4997 1.95146 15.0306 2.05707 15.5259 2.26225C16.0212 2.46742 16.4712 2.76815 16.8503 3.14726C17.2294 3.52638 17.53 3.97645 17.7351 4.47177C17.9402 4.96709 18.0458 5.49795 18.0457 6.03405L18.0498 13.9666Z" fill="#DAD9D6"/>
</svg>
