<svg width="18" height="18" viewBox="0 0 18 18" fill="none" xmlns="http://www.w3.org/2000/svg">
<path d="M0.296289 5.97561H4.03152V17.9993H0.296289V5.97561ZM2.16461 1.02863e-06C2.59228 0.00041861 3.0102 0.127923 3.36558 0.366387C3.72095 0.604851 3.9978 0.943572 4.16111 1.33972C4.32442 1.73586 4.36686 2.17163 4.28307 2.59194C4.19927 3.01226 3.99302 3.39824 3.69036 3.70108C3.38771 4.00391 3.00225 4.21002 2.58273 4.29332C2.16321 4.37662 1.72847 4.33336 1.33347 4.16905C0.938471 4.00473 0.600968 3.72673 0.363611 3.37018C0.126255 3.01362 -0.00027705 2.59454 4.55485e-07 2.16591C0.000184764 1.88124 0.0563103 1.59939 0.1652 1.33646C0.27409 1.07354 0.433605 0.834683 0.634616 0.63355C0.835627 0.432418 1.07421 0.272943 1.33673 0.164237C1.59924 0.0555318 1.88057 -0.000276313 2.16461 1.02863e-06ZM6.37092 17.9993H10.0984V12.0518C10.0984 10.4841 10.394 8.96551 12.3353 8.96551C14.2465 8.96551 14.2732 10.7585 14.2732 12.1539V18H18V11.4016C18 8.16473 17.3042 5.67514 13.5283 5.67514C12.8193 5.64834 12.1165 5.81483 11.4945 6.15685C10.8726 6.49887 10.3549 7.00362 9.99662 7.61728H9.9482V5.97279H6.36741L6.37092 17.9993Z" fill="#DAD9D6"/>
</svg>
